<?xml version="1.0" encoding="iso-8859-1"?>
<!-- Generator: Adobe Illustrator 19.0.0, SVG Export Plug-In . SVG Version: 6.00 Build 0)  -->
<svg version="1.1" id="Layer_1" xmlns="http://www.w3.org/2000/svg" xmlns:xlink="http://www.w3.org/1999/xlink" x="0px" y="0px"
	 viewBox="0 0 511.993 511.993" style="enable-background:new 0 0 511.993 511.993;" xml:space="preserve">
<path style="fill:#FFCE54;" d="M255.99,501.334c-31.866,0-62.928-6.047-92.317-17.969c-30.429-12.327-57.733-30.468-81.154-53.889
	c-23.421-23.421-41.554-50.718-53.889-81.154c-11.921-29.39-17.96-60.451-17.96-92.325c0-31.858,6.039-62.92,17.96-92.325
	c12.335-30.421,30.468-57.717,53.889-81.138s50.725-41.562,81.154-53.89c29.39-11.921,60.451-17.968,92.317-17.968
	c31.882,0,62.943,6.047,92.333,17.968c30.421,12.328,57.718,30.468,81.138,53.89c23.422,23.421,41.562,50.717,53.905,81.138
	c11.905,29.405,17.952,60.467,17.952,92.325c0,31.874-6.047,62.936-17.952,92.325c-12.343,30.437-30.483,57.733-53.905,81.154
	c-23.42,23.421-50.717,41.546-81.138,53.889C318.934,495.287,287.872,501.334,255.99,501.334z"/>
<path style="fill:#F6BB42;" d="M437.008,74.987C387.025,25.004,321.512,0.005,255.99,0.005c-65.514,0-131.027,25-181.01,74.982
	c-99.973,99.966-99.973,262.055,0,362.036c49.983,49.982,115.497,74.966,181.01,74.966c65.521,0,131.035-24.983,181.018-74.966
	C536.989,337.042,536.989,174.953,437.008,74.987z M195.656,376.681l45.249,45.249l-45.249,45.249L150.4,421.93L195.656,376.681z
	 M210.742,361.588l45.249-45.249l45.256,45.249l-45.256,45.265L210.742,361.588z M316.34,376.681l45.248,45.249l-45.248,45.249
	l-45.264-45.249L316.34,376.681z M255.99,286.168L105.83,436.336c-2.726-2.281-5.414-4.625-8.046-7.031L255.99,271.091
	l158.222,158.214c-2.641,2.406-5.328,4.75-8.046,7.031L255.99,286.168z M75.66,406.165l150.159-150.168L75.66,105.846
	c2.281-2.734,4.625-5.422,7.039-8.062l158.214,158.213L82.699,414.211C80.285,411.586,77.941,408.898,75.66,406.165z
	 M135.314,195.671L90.065,240.92l-45.256-45.249l45.256-45.264L135.314,195.671z M150.4,301.262l-45.257-45.265l45.257-45.248
	l45.256,45.248L150.4,301.262z M24.786,215.686l4.938-4.937l45.256,45.248l-45.256,45.265l-4.938-4.938
	c-2.289-13.234-3.453-26.702-3.453-40.327C21.333,242.389,22.497,228.92,24.786,215.686z M90.065,271.091l45.249,45.248
	l-45.249,45.249l-45.256-45.249L90.065,271.091z M316.34,135.329l-45.264-45.264l45.264-45.249l45.248,45.249L316.34,135.329z
	 M301.246,150.407l-45.256,45.264l-45.249-45.264l45.249-45.249L301.246,150.407z M195.656,135.329L150.4,90.065l45.256-45.249
	l45.256,45.249L195.656,135.329z M255.99,225.842L406.166,75.675c2.718,2.281,5.405,4.625,8.046,7.031L255.99,240.92L97.784,82.706
	c2.633-2.406,5.32-4.75,8.046-7.031L255.99,225.842z M271.076,255.997L429.289,97.783c2.422,2.641,4.766,5.328,7.031,8.062
	L286.169,255.997L436.32,406.165c-2.266,2.733-4.609,5.421-7.031,8.046L271.076,255.997z M316.34,255.997l45.248-45.248
	l45.25,45.248l-45.25,45.265L316.34,255.997z M376.666,195.671l45.265-45.264l45.249,45.264l-45.249,45.249L376.666,195.671z
	 M376.666,316.339l45.265-45.248l45.249,45.248l-45.249,45.265L376.666,316.339z M487.21,296.324l-4.953,4.938l-45.249-45.265
	l45.249-45.248l4.953,4.937c2.28,13.234,3.452,26.703,3.452,40.311C490.662,269.622,489.49,283.09,487.21,296.324z M476.054,174.375
	l-39.046-39.046l12.359-12.359c9.625,13.953,17.688,28.89,24.108,44.717C474.366,169.906,475.226,172.141,476.054,174.375z
	 M389.025,62.643l-12.359,12.344l-39.029-39.046c2.234,0.828,4.453,1.688,6.671,2.578C360.135,44.941,375.072,53.019,389.025,62.643
	z M296.309,24.801l4.938,4.937L255.99,74.987l-45.249-45.249l4.938-4.937c13.234-2.297,26.694-3.453,40.311-3.453
	C269.615,21.348,283.075,22.504,296.309,24.801z M174.36,35.941l-39.046,39.046L122.97,62.643
	c13.945-9.625,28.882-17.702,44.71-24.124C169.899,37.629,172.125,36.769,174.36,35.941z M62.629,122.97l12.351,12.359
	l-39.045,39.03c0.828-2.234,1.68-4.453,2.578-6.672C44.934,151.86,53.004,136.923,62.629,122.97z M35.935,337.636l39.045,39.045
	l-12.351,12.344c-9.625-13.937-17.695-28.874-24.116-44.702C37.614,342.103,36.763,339.87,35.935,337.636z M122.963,449.366
	l12.352-12.343l39.045,39.045c-2.234-0.844-4.461-1.688-6.679-2.578C151.853,467.069,136.915,458.991,122.963,449.366z
	 M215.679,487.209l-4.938-4.938l45.249-45.248l45.256,45.248l-4.938,4.938c-13.233,2.297-26.701,3.453-40.318,3.453
	C242.373,490.662,228.913,489.506,215.679,487.209z M337.621,476.068l39.045-39.045l12.359,12.343
	c-13.953,9.625-28.891,17.703-44.718,24.124C342.09,474.381,339.855,475.24,337.621,476.068z M449.367,389.024l-12.359-12.344
	l39.046-39.045c-0.828,2.234-1.688,4.468-2.578,6.687C467.055,360.15,458.976,375.088,449.367,389.024z"/>
<g>
</g>
<g>
</g>
<g>
</g>
<g>
</g>
<g>
</g>
<g>
</g>
<g>
</g>
<g>
</g>
<g>
</g>
<g>
</g>
<g>
</g>
<g>
</g>
<g>
</g>
<g>
</g>
<g>
</g>
</svg>
